<?xml version="1.0" encoding="utf-8"?>
<!-- Generator: Adobe Illustrator 24.0.0, SVG Export Plug-In . SVG Version: 6.00 Build 0)  -->
<svg version="1.1" id="北戴河分区所兼开闭所_xA0_图像_1_"
	 xmlns="http://www.w3.org/2000/svg" xmlns:xlink="http://www.w3.org/1999/xlink" x="0px" y="0px" viewBox="0 0 1920 1080"
	 style="enable-background:new 0 0 1920 1080;" xml:space="preserve">
<style type="text/css">
	.st0{fill:#1A1E22;}
	.st1{fill:none;stroke:#0AA40E;stroke-miterlimit:10;enable-background:new    ;}
	.st2{fill:none;stroke:#0AA40E;stroke-miterlimit:10;}
	.st3{fill:none;stroke:#9FA1A2;stroke-miterlimit:10;enable-background:new    ;}
	.st4{fill:none;stroke:#949698;stroke-miterlimit:10;}
	.st5{fill:#FFFFFF;}
	.st6{fill:#949698;}
	.st7{font-family:'SourceHanSansCN-Regular-GBpc-EUC-H';}
	.st8{font-size:12px;}
	.st9{fill:#969696;}
	.st10{font-size:11.8205px;}
	.st11{font-size:20.1899px;}
	.st12{font-size:19.2391px;}
	.st13{font-size:38.7748px;}
	.st14{font-size:48.2412px;}
	.st15{font-size:12px;glyph-orientation-vertical:0;writing-mode:tb;}
	.st16{fill:none;stroke:#FFFFFF;stroke-miterlimit:10;}
</style>
<rect class="st0" width="1920" height="1080"/>
<rect x="319.5" y="575.4" class="st1" width="246.3" height="8"/>
<line class="st2" x1="386.7" y1="479.7" x2="386.7" y2="621.9"/>
<line class="st2" x1="386.7" y1="734.2" x2="386.7" y2="758.7"/>
<line class="st2" x1="391.7" y1="975.8" x2="386.7" y2="998.2"/>
<line class="st2" x1="386.7" y1="788.8" x2="386.7" y2="998.2"/>
<line class="st2" x1="515.5" y1="817.4" x2="453.4" y2="817.3"/>
<line class="st2" x1="416.6" y1="816.2" x2="386.7" y2="816.2"/>
<line class="st2" x1="472.8" y1="817.3" x2="472.8" y2="845"/>
<line class="st2" x1="472.8" y1="891.3" x2="472.8" y2="900.8"/>
<line class="st2" x1="515.5" y1="817.4" x2="515.5" y2="910.2"/>
<line class="st2" x1="386.3" y1="370" x2="386.3" y2="267.6"/>
<line class="st2" x1="378.5" y1="287.8" x2="386.7" y2="267.6"/>
<line class="st2" x1="386.3" y1="341.8" x2="416.1" y2="341.8"/>
<line class="st2" x1="386.3" y1="400.6" x2="386.3" y2="424.6"/>
<line class="st2" x1="452.4" y1="342.4" x2="514.4" y2="342.4"/>
<line class="st2" x1="514.4" y1="442.1" x2="514.4" y2="341.8"/>
<line class="st2" x1="472.6" y1="342.4" x2="472.6" y2="375.7"/>
<line class="st2" x1="472.6" y1="416.2" x2="472.6" y2="426.1"/>
<line class="st2" x1="606.8" y1="575.4" x2="1324.8" y2="575.4"/>
<line class="st2" x1="1324.8" y1="583.9" x2="1324.8" y2="575"/>
<line class="st2" x1="606.8" y1="583.4" x2="1324.8" y2="583.4"/>
<line class="st2" x1="813.4" y1="579.2" x2="813.4" y2="635.2"/>
<line class="st2" x1="971.9" y1="534.5" x2="971.6" y2="579.6"/>
<line class="st2" x1="1222" y1="534.5" x2="1221.7" y2="579.6"/>
<line class="st2" x1="742" y1="534.5" x2="741.7" y2="579.6"/>
<line class="st2" x1="909.6" y1="579.2" x2="909.6" y2="635.2"/>
<line class="st2" x1="909.6" y1="756" x2="909.6" y2="747.3"/>
<line class="st2" x1="909.6" y1="996.3" x2="909.6" y2="787.1"/>
<line class="st2" x1="813.4" y1="996.3" x2="813.4" y2="787.1"/>
<line class="st2" x1="813.4" y1="756" x2="813.4" y2="747.3"/>
<line class="st2" x1="993.6" y1="579.2" x2="993.6" y2="635.2"/>
<line class="st2" x1="993.6" y1="748" x2="993.6" y2="819.5"/>
<line class="st2" x1="1258.8" y1="579.2" x2="1258.8" y2="622.8"/>
<line class="st2" x1="1258.8" y1="648.7" x2="1258.8" y2="725.5"/>
<line class="st2" x1="859.3" y1="819.5" x2="859.3" y2="848.8"/>
<line class="st2" x1="955.7" y1="819.5" x2="955.7" y2="849.6"/>
<line class="st2" x1="779.2" y1="819.5" x2="1275.7" y2="819.5"/>
<line class="st2" x1="813.4" y1="909.6" x2="838" y2="909.6"/>
<line class="st2" x1="813.5" y1="878.4" x2="858.5" y2="878.4"/>
<line class="st2" x1="909.6" y1="878.4" x2="954.5" y2="878.4"/>
<line class="st2" x1="838" y1="936.8" x2="838" y2="909.6"/>
<line class="st2" x1="909.6" y1="909.6" x2="933.7" y2="909.6"/>
<line class="st2" x1="933.7" y1="937.6" x2="933.7" y2="909.6"/>
<circle class="st2" cx="386.3" cy="579.6" r="3.8"/>
<circle class="st2" cx="743.4" cy="579.6" r="3.8"/>
<circle class="st2" cx="813.4" cy="579.6" r="3.8"/>
<circle class="st2" cx="813.4" cy="877.6" r="3.8"/>
<circle class="st2" cx="813.4" cy="908.8" r="3.8"/>
<circle class="st2" cx="910" cy="877.6" r="3.8"/>
<circle class="st2" cx="859.3" cy="820.1" r="3.8"/>
<circle class="st2" cx="955.7" cy="820.1" r="3.8"/>
<circle class="st2" cx="993.6" cy="820.1" r="3.8"/>
<circle class="st2" cx="910" cy="908.8" r="3.8"/>
<circle class="st2" cx="909.6" cy="579.6" r="3.8"/>
<circle class="st2" cx="972.4" cy="579.6" r="3.8"/>
<circle class="st2" cx="993.6" cy="579.6" r="3.8"/>
<circle class="st2" cx="1223.5" cy="579.6" r="3.8"/>
<circle class="st2" cx="1258.4" cy="579.6" r="3.8"/>
<circle class="st3" cx="1072.9" cy="579.6" r="3.8"/>
<circle class="st3" cx="1072.9" cy="759.8" r="3.8"/>
<circle class="st3" cx="1071.9" cy="877.6" r="3.8"/>
<circle class="st3" cx="1071.9" cy="908.8" r="3.8"/>
<circle class="st3" cx="1172.8" cy="759.8" r="3.8"/>
<circle class="st3" cx="1218.2" cy="820.1" r="3.8"/>
<circle class="st3" cx="1118.2" cy="820.1" r="3.8"/>
<circle class="st3" cx="813.4" cy="759.8" r="3.8"/>
<circle class="st3" cx="1172.8" cy="579.6" r="3.8"/>
<circle class="st4" cx="606.8" cy="579.6" r="3.8"/>
<line class="st4" x1="383.9" y1="370.7" x2="389.9" y2="370.7"/>
<line class="st4" x1="373.3" y1="370" x2="386.3" y2="400.6"/>
<line class="st4" x1="364.3" y1="386.6" x2="380.4" y2="386.6"/>
<g>
	<line class="st4" x1="480.8" y1="426.5" x2="464.6" y2="426.5"/>
	<line class="st4" x1="467.9" y1="431.2" x2="477.4" y2="431.2"/>
	<line class="st4" x1="470.1" y1="435.4" x2="475.3" y2="435.4"/>
</g>
<g>
	<line class="st4" x1="775.9" y1="450.1" x2="759.7" y2="450.1"/>
	<line class="st4" x1="763" y1="454.7" x2="772.5" y2="454.7"/>
	<line class="st4" x1="765.2" y1="459" x2="770.4" y2="459"/>
</g>
<g>
	<line class="st4" x1="507.2" y1="384.1" x2="507.2" y2="411.7"/>
	<line class="st4" x1="520.5" y1="411.7" x2="507.2" y2="411.7"/>
	<line class="st4" x1="520.5" y1="384.1" x2="507.2" y2="384.1"/>
	<line class="st4" x1="520.5" y1="383.9" x2="520.5" y2="411.7"/>
</g>
<g>
	<line class="st4" x1="514.3" y1="462.6" x2="514.3" y2="451.4"/>
	<line class="st4" x1="514.4" y1="487.3" x2="514.4" y2="476.1"/>
	<circle class="st4" cx="514.4" cy="458.8" r="16.3"/>
	<circle class="st4" cx="514.4" cy="483.8" r="16.3"/>
</g>
<line class="st4" x1="386" y1="447.2" x2="386" y2="454.7"/>
<line class="st4" x1="381.9" y1="450.5" x2="388.8" y2="458.5"/>
<line class="st4" x1="389.2" y1="451" x2="382.9" y2="458.7"/>
<line class="st4" x1="386.7" y1="479.7" x2="375.1" y2="454.5"/>
<g>
	<circle class="st4" cx="386.3" cy="489.1" r="5.4"/>
	<line class="st4" x1="397.3" y1="489.7" x2="391.4" y2="489.7"/>
	<line class="st4" x1="392.4" y1="486.6" x2="394.1" y2="492.7"/>
	<line class="st4" x1="394.4" y1="486.6" x2="396" y2="492.7"/>
</g>
<g>
	<circle class="st4" cx="814" cy="666.3" r="5.4"/>
	<line class="st4" x1="825" y1="666.9" x2="819.1" y2="666.9"/>
	<line class="st4" x1="820" y1="663.8" x2="821.7" y2="669.8"/>
	<line class="st4" x1="822" y1="663.8" x2="823.7" y2="669.8"/>
</g>
<g>
	<circle class="st4" cx="814" cy="679.5" r="5.4"/>
	<line class="st4" x1="825" y1="680.1" x2="819.1" y2="680.1"/>
	<line class="st4" x1="820" y1="677" x2="821.7" y2="683"/>
	<line class="st4" x1="822" y1="677" x2="823.7" y2="683"/>
</g>
<g>
	<circle class="st4" cx="386.3" cy="503.2" r="5.4"/>
	<line class="st4" x1="397.3" y1="503.8" x2="391.4" y2="503.8"/>
	<line class="st4" x1="392.4" y1="500.7" x2="394.1" y2="506.7"/>
	<line class="st4" x1="394.4" y1="500.7" x2="396" y2="506.7"/>
</g>
<line class="st4" x1="419.9" y1="330.8" x2="451.8" y2="342.4"/>
<line class="st4" x1="416.1" y1="337.2" x2="416.1" y2="346.3"/>
<line class="st4" x1="437.1" y1="328.3" x2="437.1" y2="337.2"/>
<g>
	<line class="st4" x1="464.6" y1="376.5" x2="464.6" y2="415.7"/>
	<line class="st4" x1="480.8" y1="415.7" x2="464.6" y2="415.7"/>
	<line class="st4" x1="480.8" y1="376.5" x2="464.6" y2="376.5"/>
	<line class="st4" x1="480.8" y1="376.2" x2="480.8" y2="415.7"/>
	<polygon class="st5" points="472.6,412.6 467.3,384.1 477.9,384.1 	"/>
</g>
<path class="st6" d="M386.3,425.3c4.2,0,7.6,3.4,7.6,7.6h0.8c0-4.6-3.7-8.3-8.3-8.3c-4.6,0-8.3,3.7-8.3,8.3h0.8
	C378.7,428.7,382.1,425.3,386.3,425.3z"/>
<path class="st6" d="M813.4,636.5c4.2,0,7.6,3.4,7.6,7.6h0.8c0-4.6-3.7-8.3-8.3-8.3c-4.6,0-8.3,3.7-8.3,8.3h0.8
	C805.8,639.9,809.2,636.5,813.4,636.5z"/>
<path class="st6" d="M386.3,535.8c4.2,0,7.6-3.4,7.6-7.6h0.8c0,4.6-3.7,8.3-8.3,8.3c-4.6,0-8.3-3.7-8.3-8.3h0.8
	C378.7,532.4,382.1,535.8,386.3,535.8z"/>
<path class="st6" d="M386.3,733.5c4.2,0,7.6-3.4,7.6-7.6h0.8c0,4.6-3.7,8.3-8.3,8.3c-4.6,0-8.3-3.7-8.3-8.3h0.8
	C378.7,730.1,382.1,733.5,386.3,733.5z"/>
<path class="st6" d="M813.6,746.9c4.2,0,7.6-3.4,7.6-7.6h0.8c0,4.6-3.7,8.3-8.3,8.3c-4.6,0-8.3-3.7-8.3-8.3h0.8
	C806.1,743.6,809.5,746.9,813.6,746.9z"/>
<g>
	<circle class="st4" cx="357.9" cy="385.8" r="7.1"/>
	<text transform="matrix(1 0 0 1 352.9926 390.3651)" class="st5 st7 st8">M</text>
</g>
<g>
	<circle class="st4" cx="586.5" cy="550.8" r="7.1"/>
	<text transform="matrix(1 0 0 1 581.5969 555.3867)" class="st5 st7 st8">M</text>
</g>
<line class="st4" x1="364.3" y1="772.6" x2="380.4" y2="772.6"/>
<g>
	<circle class="st4" cx="357.9" cy="771.8" r="7.1"/>
	<text transform="matrix(1 0 0 1 352.9926 776.394)" class="st5 st7 st8">M</text>
</g>
<g>
	<circle class="st4" cx="437.1" cy="322.2" r="7.1"/>
	<text transform="matrix(1 0 0 1 432.2012 326.7824)" class="st5 st7 st8">M</text>
</g>
<circle class="st2" cx="386.7" cy="341.8" r="3.5"/>
<circle class="st2" cx="472.6" cy="341.8" r="3.5"/>
<text transform="matrix(1 0 0 1 422.7915 311.7177)" class="st9 st7 st8">2634</text>
<text transform="matrix(1 0 0 1 530.6619 403.9192)" class="st9 st7 st8">4RD</text>
<g>
	<line class="st4" x1="736.3" y1="473.6" x2="736.3" y2="497.3"/>
	<line class="st4" x1="747.7" y1="497.3" x2="736.3" y2="497.3"/>
	<line class="st4" x1="747.7" y1="473.6" x2="736.3" y2="473.6"/>
	<line class="st4" x1="747.7" y1="473.4" x2="747.7" y2="497.3"/>
</g>
<text transform="matrix(1 0 0 1 756.331 488.6843)" class="st9 st7 st8">6RD</text>
<text transform="matrix(1 0 0 1 731.4677 371.9768)" class="st9 st7 st8">1SB</text>
<text transform="matrix(1 0 0 1 756.3308 528.3965)" class="st9 st7 st8">2731</text>
<text transform="matrix(1 0 0 1 464.5753 453.1278)" class="st9 st7 st8">4BL</text>
<line class="st2" x1="839.3" y1="970.8" x2="839.3" y2="979.3"/>
<line class="st4" x1="838" y1="935.9" x2="838" y2="944.4"/>
<g>
	<line class="st4" x1="845.6" y1="979.6" x2="831.8" y2="979.6"/>
	<line class="st4" x1="834.7" y1="983.6" x2="842.8" y2="983.6"/>
	<line class="st4" x1="836.5" y1="987.2" x2="840.9" y2="987.2"/>
</g>
<g>
	<line class="st4" x1="831.8" y1="937.1" x2="831.8" y2="970.5"/>
	<line class="st4" x1="845.6" y1="970.5" x2="831.8" y2="970.5"/>
	<line class="st4" x1="845.6" y1="937.1" x2="831.8" y2="937.1"/>
	<line class="st4" x1="845.6" y1="936.8" x2="845.6" y2="970.5"/>
	<polygon class="st5" points="838.7,967.8 834.2,943.5 843.2,943.5 	"/>
</g>
<text transform="matrix(1 0 0 1 827.0146 1001.2014)" class="st9 st7 st10">6BL</text>
<line class="st2" x1="935" y1="970.8" x2="935" y2="979.3"/>
<line class="st4" x1="933.7" y1="935.9" x2="933.7" y2="944.4"/>
<g>
	<line class="st4" x1="941.4" y1="979.6" x2="927.6" y2="979.6"/>
	<line class="st4" x1="930.4" y1="983.6" x2="938.5" y2="983.6"/>
	<line class="st4" x1="932.3" y1="987.2" x2="936.7" y2="987.2"/>
</g>
<g>
	<line class="st4" x1="927.6" y1="937.1" x2="927.6" y2="970.5"/>
	<line class="st4" x1="941.4" y1="970.5" x2="927.6" y2="970.5"/>
	<line class="st4" x1="941.4" y1="937.1" x2="927.6" y2="937.1"/>
	<line class="st4" x1="941.4" y1="936.8" x2="941.4" y2="970.5"/>
	<polygon class="st5" points="934.4,967.8 929.9,943.5 938.9,943.5 	"/>
</g>
<line class="st4" x1="1097.6" y1="968" x2="1097.6" y2="975.8"/>
<g>
	<line class="st4" x1="1103.4" y1="976.1" x2="1090.8" y2="976.1"/>
	<line class="st4" x1="1093.4" y1="979.7" x2="1100.8" y2="979.7"/>
	<line class="st4" x1="1095.1" y1="983" x2="1099.1" y2="983"/>
</g>
<g>
	<line class="st4" x1="1090.8" y1="937" x2="1090.8" y2="967.7"/>
	<line class="st4" x1="1103.4" y1="967.7" x2="1090.8" y2="967.7"/>
	<line class="st4" x1="1103.4" y1="937" x2="1090.8" y2="937"/>
	<line class="st4" x1="1103.4" y1="936.8" x2="1103.4" y2="967.7"/>
	<polygon class="st5" points="1097,965.2 1092.9,943 1101.2,943 	"/>
</g>
<text transform="matrix(1 0 0 1 922.7379 1001.2014)" class="st9 st7 st10">7BL</text>
<text transform="matrix(1 0 0 1 395.205 475.0562)" class="st9 st7 st8">244</text>
<line class="st4" x1="386" y1="712" x2="386" y2="704.5"/>
<line class="st4" x1="381.9" y1="708.7" x2="388.8" y2="700.7"/>
<line class="st4" x1="389.2" y1="708.3" x2="382.9" y2="700.5"/>
<line class="st4" x1="386.7" y1="679.5" x2="375.1" y2="704.7"/>
<line class="st4" x1="386.7" y1="758.7" x2="375.1" y2="783.9"/>
<g>
	<circle class="st4" cx="386.3" cy="656.1" r="5.4"/>
	<line class="st4" x1="397.3" y1="656.7" x2="391.4" y2="656.7"/>
	<line class="st4" x1="392.4" y1="653.6" x2="394.1" y2="659.6"/>
	<line class="st4" x1="394.4" y1="653.6" x2="396" y2="659.6"/>
</g>
<g>
	<circle class="st4" cx="386.3" cy="670.2" r="5.4"/>
	<line class="st4" x1="397.3" y1="670.8" x2="391.4" y2="670.8"/>
	<line class="st4" x1="392.4" y1="667.7" x2="394.1" y2="673.7"/>
	<line class="st4" x1="394.4" y1="667.7" x2="396" y2="673.7"/>
</g>
<path class="st6" d="M386.3,623.5c4.2,0,7.6,3.4,7.6,7.6h0.8c0-4.6-3.7-8.3-8.3-8.3c-4.6,0-8.3,3.7-8.3,8.3h0.8
	C378.7,626.9,382.1,623.5,386.3,623.5z"/>
<text transform="matrix(1 0 0 1 395.2049 391.142)" class="st9 st7 st8">2441</text>
<text transform="matrix(1 0 0 1 503.2516 515.6314)" class="st9 st7 st8">4YH</text>
<line class="st2" x1="452.4" y1="817.4" x2="514.4" y2="817.4"/>
<line class="st2" x1="514.4" y1="910.2" x2="514.4" y2="816.8"/>
<line class="st2" x1="472.6" y1="817.4" x2="472.6" y2="850.8"/>
<line class="st2" x1="472.6" y1="891.3" x2="472.6" y2="901.2"/>
<g>
	<line class="st4" x1="480.8" y1="901.6" x2="464.6" y2="901.6"/>
	<line class="st4" x1="467.9" y1="906.3" x2="477.4" y2="906.3"/>
	<line class="st4" x1="470.1" y1="910.5" x2="475.3" y2="910.5"/>
</g>
<g>
	<line class="st4" x1="507.2" y1="859.2" x2="507.2" y2="886.8"/>
	<line class="st4" x1="520.5" y1="886.8" x2="507.2" y2="886.8"/>
	<line class="st4" x1="520.5" y1="859.2" x2="507.2" y2="859.2"/>
	<line class="st4" x1="520.5" y1="859" x2="520.5" y2="886.8"/>
</g>
<g>
	<line class="st4" x1="514.3" y1="930.6" x2="514.3" y2="919.4"/>
	<line class="st4" x1="514.4" y1="955.3" x2="514.4" y2="944.1"/>
	<circle class="st4" cx="514.4" cy="926.8" r="16.3"/>
	<circle class="st4" cx="514.4" cy="951.8" r="16.3"/>
</g>
<line class="st4" x1="419.9" y1="805.9" x2="451.8" y2="817.4"/>
<line class="st4" x1="437.1" y1="803.4" x2="437.1" y2="812.3"/>
<g>
	<line class="st4" x1="464.6" y1="851.5" x2="464.6" y2="890.8"/>
	<line class="st4" x1="480.8" y1="890.8" x2="464.6" y2="890.8"/>
	<line class="st4" x1="480.8" y1="851.5" x2="464.6" y2="851.5"/>
	<line class="st4" x1="480.8" y1="851.3" x2="480.8" y2="890.8"/>
	<polygon class="st5" points="472.6,887.7 467.3,859.2 477.9,859.2 	"/>
</g>
<g>
	<circle class="st4" cx="437.1" cy="797.3" r="7.1"/>
	<text transform="matrix(1 0 0 1 432.2012 801.8616)" class="st5 st7 st8">M</text>
</g>
<circle class="st2" cx="472.6" cy="816.8" r="3.5"/>
<text transform="matrix(1 0 0 1 422.7915 839.7177)" class="st9 st7 st8">2633</text>
<text transform="matrix(1 0 0 1 525.1368 878.3942)" class="st9 st7 st8">3RD</text>
<text transform="matrix(1 0 0 1 395.2051 778.9409)" class="st9 st7 st8">2431</text>
<text transform="matrix(1 0 0 1 396.0684 697.1855)" class="st9 st7 st8">243</text>
<text transform="matrix(1 0 0 1 461.8127 929.9336)" class="st9 st7 st8">3BL</text>
<text transform="matrix(1 0 0 1 505.1509 983.1134)" class="st9 st7 st8">3YH</text>
<line class="st2" x1="971.9" y1="367.9" x2="971.9" y2="265.5"/>
<line class="st2" x1="964.1" y1="285.7" x2="972.3" y2="265.5"/>
<line class="st2" x1="971.9" y1="339.7" x2="1001.6" y2="339.7"/>
<line class="st2" x1="971.9" y1="398.6" x2="971.9" y2="422.5"/>
<line class="st2" x1="1038" y1="340.3" x2="1100" y2="340.3"/>
<line class="st2" x1="1100" y1="440" x2="1100" y2="339.7"/>
<line class="st2" x1="1058.2" y1="340.3" x2="1058.2" y2="373.6"/>
<line class="st2" x1="1058.2" y1="414.1" x2="1058.2" y2="424"/>
<line class="st4" x1="969.5" y1="368.6" x2="975.5" y2="368.6"/>
<line class="st4" x1="958.9" y1="367.9" x2="971.9" y2="398.6"/>
<line class="st4" x1="949.9" y1="384.5" x2="966" y2="384.5"/>
<g>
	<line class="st4" x1="1066.4" y1="424.5" x2="1050.2" y2="424.5"/>
	<line class="st4" x1="1053.5" y1="429.1" x2="1063" y2="429.1"/>
	<line class="st4" x1="1055.7" y1="433.4" x2="1060.9" y2="433.4"/>
</g>
<g>
	<line class="st4" x1="1092.8" y1="382" x2="1092.8" y2="409.6"/>
	<line class="st4" x1="1106.1" y1="409.6" x2="1092.8" y2="409.6"/>
	<line class="st4" x1="1106.1" y1="382" x2="1092.8" y2="382"/>
	<line class="st4" x1="1106.1" y1="381.8" x2="1106.1" y2="409.6"/>
</g>
<g>
	<line class="st4" x1="1252.3" y1="661.6" x2="1252.3" y2="686.2"/>
	<line class="st4" x1="1264.2" y1="686.2" x2="1252.3" y2="686.2"/>
	<line class="st4" x1="1264.2" y1="661.6" x2="1252.3" y2="661.6"/>
	<line class="st4" x1="1264.2" y1="661.4" x2="1264.2" y2="686.2"/>
</g>
<g>
	<line class="st4" x1="1099.9" y1="460.6" x2="1099.9" y2="449.3"/>
	<line class="st4" x1="1100" y1="485.2" x2="1100" y2="474"/>
	<circle class="st4" cx="1100" cy="456.7" r="16.3"/>
	<circle class="st4" cx="1100" cy="481.7" r="16.3"/>
</g>
<line class="st4" x1="971.6" y1="445.1" x2="971.6" y2="452.7"/>
<line class="st4" x1="967.5" y1="448.5" x2="974.4" y2="456.5"/>
<line class="st4" x1="974.8" y1="448.9" x2="968.5" y2="456.7"/>
<line class="st4" x1="972.2" y1="477.6" x2="960.7" y2="452.5"/>
<g>
	<circle class="st4" cx="971.9" cy="487" r="5.4"/>
	<line class="st4" x1="982.9" y1="487.7" x2="977" y2="487.7"/>
	<line class="st4" x1="978" y1="484.6" x2="979.6" y2="490.6"/>
	<line class="st4" x1="980" y1="484.6" x2="981.6" y2="490.6"/>
</g>
<g>
	<circle class="st4" cx="971.9" cy="501.1" r="5.4"/>
	<line class="st4" x1="982.9" y1="501.7" x2="977" y2="501.7"/>
	<line class="st4" x1="978" y1="498.6" x2="979.6" y2="504.7"/>
	<line class="st4" x1="980" y1="498.6" x2="981.6" y2="504.7"/>
</g>
<line class="st4" x1="1005.5" y1="328.7" x2="1037.4" y2="340.3"/>
<line class="st4" x1="1001.6" y1="335.1" x2="1001.6" y2="344.2"/>
<line class="st4" x1="1022.7" y1="326.2" x2="1022.7" y2="335.1"/>
<g>
	<line class="st4" x1="1050.2" y1="374.4" x2="1050.2" y2="413.7"/>
	<line class="st4" x1="1066.4" y1="413.7" x2="1050.2" y2="413.7"/>
	<line class="st4" x1="1066.4" y1="374.4" x2="1050.2" y2="374.4"/>
	<line class="st4" x1="1066.4" y1="374.1" x2="1066.4" y2="413.7"/>
	<polygon class="st5" points="1058.2,410.5 1052.9,382 1063.5,382 	"/>
</g>
<path class="st6" d="M971.9,423.2c4.2,0,7.6,3.4,7.6,7.6h0.8c0-4.6-3.7-8.3-8.3-8.3c-4.6,0-8.3,3.7-8.3,8.3h0.8
	C964.3,426.6,967.7,423.2,971.9,423.2z"/>
<path class="st6" d="M971.9,533.7c4.2,0,7.6-3.4,7.6-7.6h0.8c0,4.6-3.7,8.3-8.3,8.3c-4.6,0-8.3-3.7-8.3-8.3h0.8
	C964.3,530.3,967.7,533.7,971.9,533.7z"/>
<g>
	<circle class="st4" cx="1022.7" cy="320.1" r="7.1"/>
	<text transform="matrix(1 0 0 1 1017.7839 324.7105)" class="st5 st7 st8">M</text>
</g>
<g>
	<circle class="st4" cx="944" cy="385.1" r="7.1"/>
	<text transform="matrix(1 0 0 1 939.0933 389.7174)" class="st5 st7 st8">M</text>
</g>
<g>
	<circle class="st4" cx="790.2" cy="775.1" r="7.1"/>
	<text transform="matrix(1 0 0 1 785.2516 779.6315)" class="st5 st7 st8">M</text>
</g>
<circle class="st2" cx="972.3" cy="339.7" r="3.5"/>
<circle class="st2" cx="1058.2" cy="339.7" r="3.5"/>
<text transform="matrix(1 0 0 1 1008.3743 309.6458)" class="st9 st7 st8">2634</text>
<text transform="matrix(1 0 0 1 1110.3743 401.8473)" class="st9 st7 st8">2RD</text>
<text transform="matrix(1 0 0 1 1046.1869 451.0883)" class="st9 st7 st8">2BL</text>
<text transform="matrix(1 0 0 1 1029.8271 563.3752)" class="st9 st7 st11">27.5KV  LMY-80X8</text>
<text transform="matrix(1 0 0 1 980.7877 472.9842)" class="st9 st7 st8">242</text>
<text transform="matrix(1 0 0 1 822.84 710.9986)" class="st9 st7 st8">251</text>
<text transform="matrix(1 0 0 1 823.5306 776.3944)" class="st9 st7 st8">2511</text>
<text transform="matrix(1 0 0 1 820.8671 866.1786)" class="st9 st7 st8">2512</text>
<text transform="matrix(1 0 0 1 919.1117 866.1786)" class="st9 st7 st8">2522</text>
<text transform="matrix(1 0 0 1 980.7873 387.6888)" class="st9 st7 st8">2421</text>
<text id="dingweixianshi" transform="matrix(1 0 0 1 1088.8342 513.5594)" class="st9 st7 st8">2YH</text>
<line class="st4" x1="972.3" y1="513" x2="972.3" y2="477.6"/>
<line class="st2" x1="1222.5" y1="367.9" x2="1222.5" y2="265.5"/>
<line class="st2" x1="1214.7" y1="285.7" x2="1222.9" y2="265.5"/>
<line class="st2" x1="1222.5" y1="339.7" x2="1252.2" y2="339.7"/>
<line class="st2" x1="1222.5" y1="398.6" x2="1222.5" y2="422.5"/>
<line class="st2" x1="1288.6" y1="340.3" x2="1350.6" y2="340.3"/>
<line class="st2" x1="1350.6" y1="440" x2="1350.6" y2="339.7"/>
<line class="st2" x1="1308.8" y1="340.3" x2="1308.8" y2="373.6"/>
<line class="st2" x1="1308.8" y1="414.1" x2="1308.8" y2="424"/>
<line class="st4" x1="1220.1" y1="368.6" x2="1226.1" y2="368.6"/>
<line class="st4" x1="1209.5" y1="367.9" x2="1222.5" y2="398.6"/>
<line class="st4" x1="1200.5" y1="384.5" x2="1216.6" y2="384.5"/>
<g>
	<line class="st4" x1="1317" y1="424.5" x2="1300.8" y2="424.5"/>
	<line class="st4" x1="1304.1" y1="429.1" x2="1313.6" y2="429.1"/>
	<line class="st4" x1="1306.3" y1="433.4" x2="1311.5" y2="433.4"/>
</g>
<g>
	<line class="st4" x1="1343.4" y1="382" x2="1343.4" y2="409.6"/>
	<line class="st4" x1="1356.7" y1="409.6" x2="1343.4" y2="409.6"/>
	<line class="st4" x1="1356.7" y1="382" x2="1343.4" y2="382"/>
	<line class="st4" x1="1356.7" y1="381.8" x2="1356.7" y2="409.6"/>
</g>
<g>
	<line class="st4" x1="1350.5" y1="460.6" x2="1350.5" y2="449.3"/>
	<line class="st4" x1="1350.6" y1="485.2" x2="1350.6" y2="474"/>
	<circle class="st4" cx="1350.6" cy="456.7" r="16.3"/>
	<circle class="st4" cx="1350.6" cy="481.7" r="16.3"/>
</g>
<line class="st4" x1="1222.2" y1="445.1" x2="1222.2" y2="452.7"/>
<line class="st4" x1="1218.1" y1="448.5" x2="1225" y2="456.5"/>
<line class="st4" x1="1225.4" y1="448.9" x2="1219.1" y2="456.7"/>
<line class="st4" x1="1222.8" y1="477.6" x2="1211.3" y2="452.5"/>
<g>
	<circle class="st4" cx="1222.5" cy="487" r="5.4"/>
	<line class="st4" x1="1233.5" y1="487.7" x2="1227.6" y2="487.7"/>
	<line class="st4" x1="1228.6" y1="484.6" x2="1230.2" y2="490.6"/>
	<line class="st4" x1="1230.6" y1="484.6" x2="1232.2" y2="490.6"/>
</g>
<g>
	<circle class="st4" cx="1222.5" cy="501.1" r="5.4"/>
	<line class="st4" x1="1233.5" y1="501.7" x2="1227.6" y2="501.7"/>
	<line class="st4" x1="1228.6" y1="498.6" x2="1230.2" y2="504.7"/>
	<line class="st4" x1="1230.6" y1="498.6" x2="1232.2" y2="504.7"/>
</g>
<line class="st4" x1="1256.1" y1="328.7" x2="1288" y2="340.3"/>
<line class="st4" x1="1252.2" y1="335.1" x2="1252.2" y2="344.2"/>
<line class="st4" x1="1273.3" y1="326.2" x2="1273.3" y2="335.1"/>
<g>
	<line class="st4" x1="1300.8" y1="374.4" x2="1300.8" y2="413.7"/>
	<line class="st4" x1="1317" y1="413.7" x2="1300.8" y2="413.7"/>
	<line class="st4" x1="1317" y1="374.4" x2="1300.8" y2="374.4"/>
	<line class="st4" x1="1317" y1="374.1" x2="1317" y2="413.7"/>
	<polygon class="st5" points="1308.8,410.5 1303.5,382 1314.1,382 	"/>
</g>
<g>
	<line class="st4" x1="1561.7" y1="558" x2="1561.7" y2="593.5"/>
	<line class="st4" x1="1576.3" y1="593.5" x2="1561.7" y2="593.5"/>
	<line class="st4" x1="1576.3" y1="558" x2="1561.7" y2="558"/>
	<line class="st4" x1="1576.3" y1="557.8" x2="1576.3" y2="593.5"/>
</g>
<polygon class="st5" points="1568.8,328.6 1564.6,351.3 1573,351.3 "/>
<polygon class="st4" points="1568.8,451.7 1562.4,463.1 1575.3,463.1 "/>
<polygon class="st4" points="1568.8,445.5 1562.4,434.1 1575.3,434.1 "/>
<path class="st6" d="M1222.5,423.2c4.2,0,7.6,3.4,7.6,7.6h0.8c0-4.6-3.7-8.3-8.3-8.3c-4.6,0-8.3,3.7-8.3,8.3h0.8
	C1214.9,426.6,1218.3,423.2,1222.5,423.2z"/>
<path class="st6" d="M1222.5,533.7c4.2,0,7.6-3.4,7.6-7.6h0.8c0,4.6-3.7,8.3-8.3,8.3c-4.6,0-8.3-3.7-8.3-8.3h0.8
	C1214.9,530.3,1218.3,533.7,1222.5,533.7z"/>
<g>
	<circle class="st4" cx="1273.3" cy="320.1" r="7.1"/>
	<text transform="matrix(1 0 0 1 1268.3809 324.7105)" class="st5 st7 st8">M</text>
</g>
<g>
	<circle class="st4" cx="1194.6" cy="385.1" r="7.1"/>
	<text transform="matrix(1 0 0 1 1189.6902 389.7174)" class="st5 st7 st8">M</text>
</g>
<circle class="st2" cx="1222.9" cy="339.7" r="3.5"/>
<circle class="st2" cx="1308.8" cy="339.7" r="3.5"/>
<text transform="matrix(1 0 0 1 1258.9712 309.6458)" class="st9 st7 st8">2634</text>
<text transform="matrix(1 0 0 1 1363.0431 401.8473)" class="st9 st7 st8">1RD</text>
<text transform="matrix(1 0 0 1 1296.7838 451.0883)" class="st9 st7 st8">1BL</text>
<text transform="matrix(1 0 0 1 1231.3846 472.9842)" class="st9 st7 st8">241</text>
<text transform="matrix(1 0 0 1 1261.0571 638.4806)" class="st9 st7 st8">2635</text>
<text transform="matrix(1 0 0 1 1266.1797 679.4838)" class="st9 st7 st8">5RD</text>
<text transform="matrix(1 0 0 1 1231.3843 387.6888)" class="st9 st7 st8">2411</text>
<text transform="matrix(1 0 0 1 1590.3954 576.9376)" class="st9 st7 st12">7RD</text>
<text transform="matrix(1 0 0 1 1670.9421 682.635)" class="st9 st7 st12">8BL</text>
<text transform="matrix(1 0 0 1 1564.7551 826.117)" class="st9 st7 st12">2ZB</text>
<text transform="matrix(1 0 0 1 828.4342 136.4752)" class="st5 st7 st13">K278  670</text>
<text transform="matrix(1 0 0 1 689.9312 60.6345)" class="st5 st7 st14">北戴河分区所兼开闭所</text>
<g>
	<line class="st4" x1="1258.9" y1="745.9" x2="1258.9" y2="734.7"/>
	<line class="st4" x1="1259" y1="770.6" x2="1259" y2="759.3"/>
	<circle class="st4" cx="1259" cy="742" r="16.3"/>
	<circle class="st4" cx="1259" cy="767.1" r="16.3"/>
</g>
<text transform="matrix(1 0 0 1 1247.9207 799.5735)" class="st9 st7 st8">5YH</text>
<line class="st4" x1="1222.9" y1="513" x2="1222.9" y2="477.6"/>
<g>
	<text transform="matrix(1 0 0 1 942.6755 214.8988)" class="st9 st7 st15">秦皇岛上行</text>
</g>
<g>
	<text transform="matrix(1 0 0 1 1068.4028 1015.7046)" class="st9 st7 st15">预留</text>
</g>
<g>
	<text transform="matrix(1 0 0 1 1172.343 1015.7049)" class="st9 st7 st15">预留</text>
</g>
<g>
	<text transform="matrix(1 0 0 1 1243.1072 214.899)" class="st9 st7 st15">秦皇岛下行</text>
</g>
<g>
	<text transform="matrix(1 0 0 1 286.561 272.5237)" class="st9 st7 st8">昌黎上行</text>
</g>
<g>
	<text transform="matrix(1 0 0 1 286.561 855.2574)" class="st9 st7 st8">昌黎下行</text>
</g>
<line class="st4" x1="566.7" y1="563.8" x2="603.2" y2="578.5"/>
<g>
	<line class="st4" x1="742" y1="399.8" x2="742" y2="388.6"/>
	<line class="st4" x1="742" y1="424.5" x2="742" y2="413.3"/>
	<circle class="st4" cx="742" cy="396" r="16.3"/>
	<circle class="st4" cx="742" cy="396" r="13.1"/>
	<circle class="st4" cx="742" cy="416.9" r="16.3"/>
	<circle class="st4" cx="742" cy="416.9" r="13.1"/>
</g>
<g>
	<circle class="st4" cx="1572.1" cy="727.7" r="29.6"/>
	<circle class="st4" cx="1572.1" cy="727.7" r="23.8"/>
	<circle class="st4" cx="1572.1" cy="765.7" r="29.6"/>
	<circle class="st4" cx="1572.1" cy="765.7" r="23.8"/>
	<line class="st4" x1="1564.9" y1="721.1" x2="1571.2" y2="726.6"/>
	<line class="st4" x1="1576.5" y1="720.8" x2="1571" y2="726.8"/>
	<line class="st4" x1="1571.3" y1="734" x2="1571" y2="726.8"/>
	<line class="st4" x1="1566" y1="766.3" x2="1571.1" y2="771.9"/>
	<line class="st4" x1="1576.6" y1="765.7" x2="1571.1" y2="771.9"/>
	<line class="st4" x1="1571" y1="778.9" x2="1571.1" y2="771.9"/>
	<line class="st4" x1="1577.6" y1="772" x2="1571.1" y2="771.9"/>
</g>
<line class="st4" x1="732.1" y1="536.3" x2="742.6" y2="511.6"/>
<line class="st4" x1="734.1" y1="522.6" x2="738" y2="522.6"/>
<line class="st4" x1="732.6" y1="522.6" x2="728.3" y2="522.6"/>
<line class="st4" x1="728.3" y1="519.1" x2="728.3" y2="525.8"/>
<line class="st4" x1="1247.4" y1="622.8" x2="1258.4" y2="648.7"/>
<line class="st4" x1="1249.5" y1="637.2" x2="1253.6" y2="637.2"/>
<line class="st4" x1="1248" y1="637.2" x2="1243.5" y2="637.2"/>
<line class="st4" x1="1261.1" y1="623.2" x2="1256.6" y2="623.2"/>
<line class="st4" x1="1243.5" y1="640.8" x2="1243.5" y2="633.9"/>
<line class="st4" x1="813.4" y1="656.2" x2="813.4" y2="694.4"/>
<line class="st4" x1="810.3" y1="690.8" x2="817" y2="697.7"/>
<line class="st4" x1="816.9" y1="690.3" x2="810.3" y2="697.7"/>
<line class="st4" x1="814" y1="725.8" x2="814" y2="717.1"/>
<line class="st4" x1="803.1" y1="694" x2="814" y2="717.9"/>
<line class="st4" x1="813.4" y1="763.9" x2="805.3" y2="787.1"/>
<line class="st4" x1="797.3" y1="773.4" x2="810" y2="773.4"/>
<line class="st4" x1="808.5" y1="786.1" x2="818.5" y2="786.1"/>
<line class="st2" x1="909.9" y1="756" x2="909.9" y2="747.3"/>
<circle class="st3" cx="910" cy="759.8" r="3.8"/>
<g>
	<circle class="st4" cx="910.6" cy="666.3" r="5.4"/>
	<line class="st4" x1="921.5" y1="666.9" x2="915.7" y2="666.9"/>
	<line class="st4" x1="916.6" y1="663.8" x2="918.3" y2="669.8"/>
	<line class="st4" x1="918.6" y1="663.8" x2="920.2" y2="669.8"/>
</g>
<g>
	<circle class="st4" cx="910.6" cy="679.5" r="5.4"/>
	<line class="st4" x1="921.5" y1="680.1" x2="915.7" y2="680.1"/>
	<line class="st4" x1="916.6" y1="677" x2="918.3" y2="683"/>
	<line class="st4" x1="918.6" y1="677" x2="920.2" y2="683"/>
</g>
<path class="st6" d="M909.9,636.5c4.2,0,7.6,3.4,7.6,7.6h0.8c0-4.6-3.7-8.3-8.3-8.3c-4.6,0-8.3,3.7-8.3,8.3h0.8
	C902.4,639.9,905.8,636.5,909.9,636.5z"/>
<path class="st6" d="M910.2,746.9c4.2,0,7.6-3.4,7.6-7.6h0.8c0,4.6-3.7,8.3-8.3,8.3c-4.6,0-8.3-3.7-8.3-8.3h0.8
	C902.7,743.6,906.1,746.9,910.2,746.9z"/>
<g>
	<circle class="st4" cx="886.8" cy="775.1" r="7.1"/>
	<text transform="matrix(1 0 0 1 881.8345 779.6315)" class="st5 st7 st8">M</text>
</g>
<g>
	<circle class="st4" cx="881.8" cy="867.2" r="7.1"/>
	<text transform="matrix(1 0 0 1 876.9134 871.7726)" class="st5 st7 st8">M</text>
</g>
<text transform="matrix(1 0 0 1 920.8042 710.9988)" class="st9 st7 st8">252</text>
<text transform="matrix(1 0 0 1 920.1134 777.2578)" class="st9 st7 st8">2521</text>
<line class="st4" x1="909.9" y1="656.2" x2="909.9" y2="694.4"/>
<line class="st4" x1="906.9" y1="690.8" x2="913.6" y2="697.7"/>
<line class="st4" x1="913.5" y1="690.3" x2="906.9" y2="697.7"/>
<line class="st4" x1="910.6" y1="725.8" x2="910.6" y2="717.1"/>
<line class="st4" x1="899.7" y1="694" x2="910.6" y2="717.9"/>
<g>
	<circle class="st4" cx="993.5" cy="666.3" r="5.4"/>
	<line class="st4" x1="1004.5" y1="666.9" x2="998.7" y2="666.9"/>
	<line class="st4" x1="999.6" y1="663.8" x2="1001.3" y2="669.8"/>
	<line class="st4" x1="1001.6" y1="663.8" x2="1003.2" y2="669.8"/>
</g>
<g>
	<circle class="st4" cx="993.5" cy="679.5" r="5.4"/>
	<line class="st4" x1="1004.5" y1="680.1" x2="998.7" y2="680.1"/>
	<line class="st4" x1="999.6" y1="677" x2="1001.3" y2="683"/>
	<line class="st4" x1="1001.6" y1="677" x2="1003.2" y2="683"/>
</g>
<path class="st6" d="M992.9,636.5c4.2,0,7.6,3.4,7.6,7.6h0.8c0-4.6-3.7-8.3-8.3-8.3c-4.6,0-8.3,3.7-8.3,8.3h0.8
	C985.4,639.9,988.8,636.5,992.9,636.5z"/>
<path class="st6" d="M993.2,746.9c4.2,0,7.6-3.4,7.6-7.6h0.8c0,4.6-3.7,8.3-8.3,8.3c-4.6,0-8.3-3.7-8.3-8.3h0.8
	C985.7,743.6,989,746.9,993.2,746.9z"/>
<text transform="matrix(1 0 0 1 1005.3463 710.9989)" class="st9 st7 st8">25B</text>
<line class="st4" x1="992.9" y1="656.2" x2="992.9" y2="694.4"/>
<line class="st4" x1="989.9" y1="690.8" x2="996.5" y2="697.7"/>
<line class="st4" x1="996.5" y1="690.3" x2="989.9" y2="697.7"/>
<line class="st4" x1="993.5" y1="725.8" x2="993.5" y2="717.1"/>
<line class="st4" x1="982.7" y1="694" x2="993.5" y2="717.9"/>
<g>
	<circle class="st4" cx="1073.8" cy="666.3" r="5.4"/>
	<line class="st4" x1="1084.8" y1="666.9" x2="1078.9" y2="666.9"/>
	<line class="st4" x1="1079.9" y1="663.8" x2="1081.5" y2="669.8"/>
	<line class="st4" x1="1081.9" y1="663.8" x2="1083.5" y2="669.8"/>
</g>
<g>
	<circle class="st4" cx="1073.8" cy="679.5" r="5.4"/>
	<line class="st4" x1="1084.8" y1="680.1" x2="1078.9" y2="680.1"/>
	<line class="st4" x1="1079.9" y1="677" x2="1081.5" y2="683"/>
	<line class="st4" x1="1081.9" y1="677" x2="1083.5" y2="683"/>
</g>
<path class="st6" d="M1073.2,636.5c4.2,0,7.6,3.4,7.6,7.6h0.8c0-4.6-3.7-8.3-8.3-8.3c-4.6,0-8.3,3.7-8.3,8.3h0.8
	C1065.7,639.9,1069,636.5,1073.2,636.5z"/>
<path class="st6" d="M1073.5,746.9c4.2,0,7.6-3.4,7.6-7.6h0.8c0,4.6-3.7,8.3-8.3,8.3c-4.6,0-8.3-3.7-8.3-8.3h0.8
	C1065.9,743.6,1069.3,746.9,1073.5,746.9z"/>
<line class="st4" x1="1073.2" y1="656.2" x2="1073.2" y2="694.4"/>
<line class="st4" x1="1070.1" y1="690.8" x2="1076.8" y2="697.7"/>
<line class="st4" x1="1076.8" y1="690.3" x2="1070.2" y2="697.7"/>
<line class="st4" x1="1073.8" y1="725.8" x2="1073.8" y2="717.1"/>
<line class="st4" x1="1063" y1="694" x2="1073.8" y2="717.9"/>
<line class="st4" x1="909.9" y1="763.9" x2="901.9" y2="787.1"/>
<line class="st4" x1="893.9" y1="773.4" x2="906.5" y2="773.4"/>
<line class="st4" x1="905.1" y1="786.1" x2="915.1" y2="786.1"/>
<g>
	<circle class="st4" cx="1051.1" cy="775.1" r="7.1"/>
	<text transform="matrix(1 0 0 1 1046.2122 779.6315)" class="st5 st7 st8">M</text>
</g>
<g>
	<circle class="st4" cx="1140.3" cy="867.2" r="7.1"/>
	<text transform="matrix(1 0 0 1 1135.4098 871.7726)" class="st5 st7 st8">M</text>
</g>
<line class="st4" x1="1072" y1="763.9" x2="1064" y2="787.1"/>
<line class="st4" x1="1058.3" y1="773.4" x2="1068.7" y2="773.4"/>
<line class="st4" x1="1068.5" y1="786.1" x2="1078.5" y2="786.1"/>
<circle class="st3" cx="1172.7" cy="759.8" r="3.8"/>
<g>
	<circle class="st4" cx="1173.7" cy="666.3" r="5.4"/>
	<line class="st4" x1="1184.7" y1="666.9" x2="1178.8" y2="666.9"/>
	<line class="st4" x1="1179.8" y1="663.8" x2="1181.4" y2="669.8"/>
	<line class="st4" x1="1181.7" y1="663.8" x2="1183.4" y2="669.8"/>
</g>
<g>
	<circle class="st4" cx="1173.7" cy="679.5" r="5.4"/>
	<line class="st4" x1="1184.7" y1="680.1" x2="1178.8" y2="680.1"/>
	<line class="st4" x1="1179.8" y1="677" x2="1181.4" y2="683"/>
	<line class="st4" x1="1181.7" y1="677" x2="1183.4" y2="683"/>
</g>
<path class="st6" d="M1173.1,636.5c4.2,0,7.6,3.4,7.6,7.6h0.8c0-4.6-3.7-8.3-8.3-8.3c-4.6,0-8.3,3.7-8.3,8.3h0.8
	C1165.5,639.9,1168.9,636.5,1173.1,636.5z"/>
<path class="st6" d="M1173.3,746.9c4.2,0,7.6-3.4,7.6-7.6h0.8c0,4.6-3.7,8.3-8.3,8.3c-4.6,0-8.3-3.7-8.3-8.3h0.8
	C1165.8,743.6,1169.2,746.9,1173.3,746.9z"/>
<line class="st4" x1="1173.1" y1="656.2" x2="1173.1" y2="694.4"/>
<line class="st4" x1="1170" y1="690.8" x2="1176.7" y2="697.7"/>
<line class="st4" x1="1176.6" y1="690.3" x2="1170" y2="697.7"/>
<line class="st4" x1="1173.7" y1="725.8" x2="1173.7" y2="717.1"/>
<line class="st4" x1="1162.8" y1="694" x2="1173.7" y2="717.9"/>
<g>
	<circle class="st4" cx="1151" cy="775.1" r="7.1"/>
	<text transform="matrix(1 0 0 1 1146.0596 779.6315)" class="st5 st7 st8">M</text>
</g>
<line class="st4" x1="1171.8" y1="763.9" x2="1163.8" y2="787.1"/>
<line class="st4" x1="1158.1" y1="773.4" x2="1168.5" y2="773.4"/>
<line class="st4" x1="1168.3" y1="786.1" x2="1178.3" y2="786.1"/>
<line class="st4" x1="858.5" y1="874.3" x2="858.5" y2="878.4"/>
<line class="st4" x1="867.1" y1="849.6" x2="858.5" y2="874.5"/>
<line class="st4" x1="864" y1="849.3" x2="854.9" y2="849.3"/>
<g>
	<circle class="st4" cx="978" cy="867.2" r="7.1"/>
	<text transform="matrix(1 0 0 1 973.0897 871.7726)" class="st5 st7 st8">M</text>
</g>
<line class="st4" x1="954.7" y1="874.3" x2="954.7" y2="878.4"/>
<line class="st4" x1="963.2" y1="849.6" x2="954.7" y2="874.5"/>
<line class="st4" x1="960.2" y1="849.3" x2="951.1" y2="849.3"/>
<line class="st4" x1="813.7" y1="996.6" x2="819.7" y2="975.4"/>
<line class="st4" x1="910" y1="996.1" x2="917.5" y2="975"/>
<line class="st4" x1="1071.9" y1="786.1" x2="1071.9" y2="998.6"/>
<line class="st4" x1="1079.4" y1="975.9" x2="1071.9" y2="998.6"/>
<line class="st4" x1="1071.9" y1="909.6" x2="1097.7" y2="909.6"/>
<line class="st4" x1="1097.3" y1="943" x2="1097.3" y2="909.6"/>
<line class="st4" x1="1071.9" y1="877.4" x2="1118.2" y2="877.4"/>
<line class="st4" x1="1118.2" y1="871.1" x2="1118.2" y2="877.4"/>
<line class="st4" x1="1125.8" y1="850.3" x2="1118.2" y2="871.1"/>
<line class="st4" x1="1112.2" y1="849.7" x2="1123.8" y2="849.7"/>
<line class="st4" x1="1118.6" y1="820.1" x2="1118.6" y2="849.7"/>
<line class="st4" x1="1119.8" y1="866.7" x2="1133.2" y2="866.7"/>
<circle class="st3" cx="1172.3" cy="877.6" r="3.8"/>
<circle class="st3" cx="1172.3" cy="908.8" r="3.8"/>
<line class="st4" x1="1198.1" y1="968" x2="1198.1" y2="975.8"/>
<g>
	<line class="st4" x1="1203.9" y1="976.1" x2="1191.2" y2="976.1"/>
	<line class="st4" x1="1193.8" y1="979.7" x2="1201.2" y2="979.7"/>
	<line class="st4" x1="1195.5" y1="983" x2="1199.6" y2="983"/>
</g>
<g>
	<line class="st4" x1="1191.2" y1="937" x2="1191.2" y2="967.7"/>
	<line class="st4" x1="1203.9" y1="967.7" x2="1191.2" y2="967.7"/>
	<line class="st4" x1="1203.9" y1="937" x2="1191.2" y2="937"/>
	<line class="st4" x1="1203.9" y1="936.8" x2="1203.9" y2="967.7"/>
	<polygon class="st5" points="1197.5,965.2 1193.3,943 1201.6,943 	"/>
</g>
<line class="st4" x1="1651.8" y1="701.6" x2="1651.8" y2="713.2"/>
<g>
	<line class="st4" x1="1660.5" y1="713.7" x2="1641.5" y2="713.7"/>
	<line class="st4" x1="1645.5" y1="719.2" x2="1656.6" y2="719.2"/>
	<line class="st4" x1="1648" y1="724.1" x2="1654.1" y2="724.1"/>
</g>
<g>
	<line class="st4" x1="1641.5" y1="655.1" x2="1641.5" y2="701.1"/>
	<line class="st4" x1="1660.5" y1="701.1" x2="1641.5" y2="701.1"/>
	<line class="st4" x1="1660.5" y1="655.1" x2="1641.5" y2="655.1"/>
	<line class="st4" x1="1660.5" y1="654.8" x2="1660.5" y2="701.1"/>
	<polygon class="st5" points="1650.9,697.4 1644.7,664 1657.1,664 	"/>
</g>
<g>
	<circle class="st4" cx="1240.8" cy="867.2" r="7.1"/>
	<text transform="matrix(1 0 0 1 1235.8484 871.7726)" class="st5 st7 st8">M</text>
</g>
<line class="st4" x1="1172.3" y1="786.1" x2="1172.3" y2="998.6"/>
<line class="st4" x1="1179.9" y1="975.9" x2="1172.3" y2="998.6"/>
<line class="st4" x1="1172.3" y1="909.6" x2="1198.1" y2="909.6"/>
<line class="st4" x1="1197.8" y1="943" x2="1197.8" y2="909.6"/>
<line class="st4" x1="1172.3" y1="877.4" x2="1218.6" y2="877.4"/>
<line class="st4" x1="1218.6" y1="871.1" x2="1218.6" y2="877.4"/>
<line class="st4" x1="1226.3" y1="850.3" x2="1218.6" y2="871.1"/>
<line class="st4" x1="1212.7" y1="849.7" x2="1224.2" y2="849.7"/>
<line class="st4" x1="1219" y1="820.1" x2="1219" y2="849.7"/>
<line class="st4" x1="1220.2" y1="866.7" x2="1233.6" y2="866.7"/>
<line class="st4" x1="1568.6" y1="351.3" x2="1568.6" y2="697.2"/>
<line class="st4" x1="1561.5" y1="397.2" x2="1576.2" y2="381.8"/>
<line class="st4" x1="1561.5" y1="403.9" x2="1576.2" y2="388.6"/>
<line class="st4" x1="1561.5" y1="411.1" x2="1576.2" y2="395.7"/>
<line class="st4" x1="1568.6" y1="611.1" x2="1650.9" y2="611.1"/>
<line class="st4" x1="1651" y1="664" x2="1651" y2="611.1"/>
<line class="st16" x1="755.2" y1="91.1" x2="1106.1" y2="91.1"/>
<line class="st16" x1="928.7" y1="163.6" x2="928.7" y2="91.1"/>
</svg>
