<?xml version="1.0" encoding="utf-8"?>
<!-- Generator: Adobe Illustrator 24.0.0, SVG Export Plug-In . SVG Version: 6.00 Build 0)  -->
<svg version="1.1" id="图层_1" xmlns="http://www.w3.org/2000/svg" xmlns:xlink="http://www.w3.org/1999/xlink" x="0px" y="0px"
 width="48px" height="48px"	 viewBox="0 0 64 64" style="enable-background:new 0 0 64 64;" xml:space="preserve">
<style type="text/css">
	.st0{fill:#F2CB41;}
	.st1{fill:#A54B3D;}
	.st2{fill:#F2CA44;}
	.st3{fill:#DCCA9B;}
	.st4{fill:#3F506D;}
	.st5{fill:#56646F;}
	.st6{fill:#FEFCC9;}
	.st7{fill:#4BB8DE;}
	.st8{fill:#E35D4A;}
	.st9{fill:#99A8B2;}
	.st10{fill:#CE3B39;}
	.st11{fill:#515151;}
	.st12{fill:#FFFFFF;}
	.st13{fill:none;}
</style>
<g id="guidaoche">
	<g>
		<rect x="10.4" y="26.6" class="st0" width="5.5" height="11.3"/>
	</g>
	<g>
		<rect x="13.2" y="17" class="st0" width="2.7" height="12"/>
	</g>
	<g>
		<rect x="15.9" y="26.6" class="st1" width="11.3" height="1"/>
	</g>
	<g>
		<rect x="20.5" y="23.4" class="st1" width="2.9" height="14.5"/>
	</g>
	<g>
		<rect x="19.5" y="32.3" class="st1" width="8.8" height="5.7"/>
	</g>
	<g>
		<rect x="17.6" y="17" class="st2" width="26.4" height="6"/>
	</g>
	<g>
		<rect x="17.6" y="20" class="st3" width="26.4" height="1.5"/>
	</g>
	<g>
		<rect x="17.6" y="23" class="st1" width="25.2" height="0.7"/>
	</g>
	<g>
		<polygon class="st2" points="31.3,24.7 54.7,24.7 56.6,24.7 58.9,31.5 58.9,34 58.9,37.9 31.3,37.9 		"/>
	</g>
	<g>
		<rect x="40.2" y="27.6" class="st4" width="6.8" height="4.7"/>
	</g>
	<g>
		<rect x="49" y="27.6" class="st4" width="6.8" height="4.7"/>
	</g>
	<g>
		<rect x="50" y="21.9" class="st5" width="1.9" height="2.8"/>
	</g>
	<g>
		<rect x="47.1" y="23.7" class="st5" width="1.9" height="1"/>
	</g>
	<g>
		<rect x="53.9" y="23.7" class="st5" width="1" height="1"/>
	</g>
	<g>
		<rect x="34.2" y="23.7" class="st5" width="11.7" height="1"/>
	</g>
	<g>
		<circle class="st6" cx="31.5" cy="31" r="7.3"/>
		<path class="st7" d="M31.5,39c-4.4,0-8-3.6-8-8s3.6-8,8-8s8,3.6,8,8S35.9,39,31.5,39z M31.5,24.4c-3.6,0-6.6,3-6.6,6.6
			s3,6.6,6.6,6.6c3.6,0,6.6-3,6.6-6.6S35.1,24.4,31.5,24.4z"/>
	</g>
	<g>
		<rect x="30.2" y="26.6" class="st8" width="0.9" height="9.8"/>
	</g>
	<g>
		<polygon class="st8" points="31.1,26.6 34.2,29.4 31.1,29.4 		"/>
	</g>
	<g>
		<rect x="7" y="37.9" class="st9" width="51.9" height="1.7"/>
	</g>
	<g>
		<rect x="7.8" y="32" class="st1" width="2.6" height="5.9"/>
	</g>
	<g>
		<rect x="10.3" y="30.4" class="st10" width="9.3" height="7.5"/>
	</g>
	<g>
		<path class="st11" d="M18.3,42.5c0,0.6-0.5,1.1-1,1.1c-0.3,0-0.5-0.1-0.7-0.3c-0.2-0.2-0.3-0.5-0.3-0.7c0-0.3,0.1-0.5,0.3-0.7
			c0.2-0.2,0.4-0.3,0.7-0.3v0C17.9,41.5,18.3,41.9,18.3,42.5z M28.6,45.2h-5.7c1.4,0,2.5-1.2,2.5-2.7c0-1.5-1.1-2.5-2.5-2.5
			c-1.4,0-2.5,1.1-2.5,2.5c0,1.5,1.1,2.7,2.5,2.7h-5.5c1.4,0,2.5-1.2,2.5-2.7c0-1.5-1.1-2.5-2.5-2.5c-1.4,0-2.5,1.1-2.5,2.5
			c0,1.5,1.1,2.7,2.5,2.7h-5.6c1.4,0,2.6-1.2,2.6-2.7c0-1.5-1.2-2.5-2.6-2.5c-1.4,0-2.5,1.1-2.5,2.5c0,1.5,1.1,2.7,2.5,2.7h-0.2
			c-1.5,0-5.8-2.4-5.8-4.3c0-1.8,1.8-1,3.3-1h22.3c1.5,0,3.3-0.8,3.3,1C34.5,42.8,30.1,45.2,28.6,45.2z M22.9,43.6
			c-0.6,0-1-0.5-1-1.1c0-0.6,0.5-1.1,1-1.1c0.5,0,1,0.5,1,1.1C23.9,43.1,23.4,43.6,22.9,43.6z M10.9,43c-0.2-0.3-0.2-0.7,0-1.1
			c0.2-0.3,0.5-0.5,0.9-0.5c0.6,0,1,0.5,1,1.1c0,0.6-0.5,1.1-1,1.1C11.4,43.6,11.1,43.4,10.9,43z"/>
	</g>
	<g>
		<path class="st12" d="M32.6,40.4c-0.3,0-0.5,0.1-0.7,0.3c-0.2,0.2-0.3,0.5-0.3,0.7c0,0.6,0.5,1,1,1c0.6,0,1-0.5,1-1
			C33.6,40.8,33.1,40.4,32.6,40.4z M32.6,42c-0.2,0-0.4-0.1-0.5-0.3c-0.1-0.2,0-0.4,0.1-0.6c0.1-0.2,0.4-0.2,0.5-0.1
			c0.2,0.1,0.3,0.3,0.3,0.5C33.1,41.7,32.9,42,32.6,42z"/>
	</g>
	<g>
		<path class="st11" d="M32.6,42"/>
	</g>
	<g>
		<rect x="2.7" y="28.4" class="st13" width="34.5" height="16.9"/>
	</g>
	<g>
		<path class="st11" d="M43.2,42.5c0,0.6-0.5,1.1-1,1.1c-0.3,0-0.5-0.1-0.7-0.3c-0.2-0.2-0.3-0.5-0.3-0.7c0-0.3,0.1-0.5,0.3-0.7
			c0.2-0.2,0.4-0.3,0.7-0.3v0C42.8,41.5,43.2,41.9,43.2,42.5z M53.5,45.2h-5.7c1.4,0,2.5-1.2,2.5-2.7c0-1.5-1.1-2.5-2.5-2.5
			c-1.4,0-2.5,1.1-2.5,2.5c0,1.5,1.1,2.7,2.5,2.7h-5.5c1.4,0,2.5-1.2,2.5-2.7c0-1.5-1.1-2.5-2.5-2.5c-1.4,0-2.5,1.1-2.5,2.5
			c0,1.5,1.1,2.7,2.5,2.7h-5.6c1.4,0,2.6-1.2,2.6-2.7c0-1.5-1.2-2.5-2.6-2.5c-1.4,0-2.5,1.1-2.5,2.5c0,1.5,1.1,2.7,2.5,2.7h-0.2
			c-1.5,0-5.8-2.4-5.8-4.3c0-1.8,1.8-1,3.3-1h22.3c1.5,0,3.3-0.8,3.3,1C59.4,42.8,55,45.2,53.5,45.2z M47.8,43.6c-0.6,0-1-0.5-1-1.1
			c0-0.6,0.5-1.1,1-1.1c0.5,0,1,0.5,1,1.1C48.8,43.1,48.3,43.6,47.8,43.6z M35.8,43c-0.2-0.3-0.2-0.7,0-1.1c0.2-0.3,0.5-0.5,0.9-0.5
			c0.6,0,1,0.5,1,1.1c0,0.6-0.5,1.1-1,1.1C36.3,43.6,36,43.4,35.8,43z"/>
	</g>
	<g>
		<path class="st12" d="M57.5,40.4c-0.3,0-0.5,0.1-0.7,0.3c-0.2,0.2-0.3,0.5-0.3,0.7c0,0.6,0.5,1,1,1c0.6,0,1-0.5,1-1
			C58.5,40.8,58,40.4,57.5,40.4z M57.5,42c-0.2,0-0.4-0.1-0.5-0.3c-0.1-0.2,0-0.4,0.1-0.6c0.1-0.2,0.4-0.2,0.5-0.1
			c0.2,0.1,0.3,0.3,0.3,0.5C58,41.7,57.8,42,57.5,42z"/>
	</g>
	<g>
		<path class="st12" d="M32.6,40.4c-0.3,0-0.5,0.1-0.7,0.3c-0.2,0.2-0.3,0.5-0.3,0.7c0,0.6,0.5,1,1,1c0.6,0,1-0.5,1-1
			C33.6,40.8,33.1,40.4,32.6,40.4z M32.6,42c-0.2,0-0.4-0.1-0.5-0.3c-0.1-0.2,0-0.4,0.1-0.6c0.1-0.2,0.4-0.2,0.5-0.1
			c0.2,0.1,0.3,0.3,0.3,0.5C33.1,41.7,32.9,42,32.6,42z"/>
	</g>
	<g>
		<path class="st12" d="M7.8,40.4c-0.3,0-0.5,0.1-0.7,0.3c-0.2,0.2-0.3,0.5-0.3,0.7c0,0.6,0.5,1,1,1c0.6,0,1-0.5,1-1
			C8.8,40.8,8.3,40.4,7.8,40.4z M7.8,42c-0.2,0-0.4-0.1-0.5-0.3c-0.1-0.2,0-0.4,0.1-0.6c0.1-0.2,0.4-0.2,0.5-0.1
			c0.2,0.1,0.3,0.3,0.3,0.5C8.3,41.7,8.1,42,7.8,42z"/>
	</g>
	<g>
		<path class="st12" d="M56,42.5c0-1.5-1.1-2.5-2.5-2.5c-1.4,0-2.5,1.1-2.5,2.5c0,1.5,1.1,2.7,2.5,2.7C54.8,45.2,56,43.9,56,42.5z
			 M53.4,43.5c-0.5,0-1-0.5-1-1.1c0-0.6,0.4-1,1-1.1c0.5,0,1,0.5,1,1.1C54.4,43.1,54,43.5,53.4,43.5z"/>
	</g>
	<g>
		<path class="st12" d="M50.3,42.5c0-1.5-1.1-2.5-2.5-2.5c-1.4,0-2.5,1.1-2.5,2.5c0,1.5,1.1,2.7,2.5,2.7
			C49.1,45.2,50.3,43.9,50.3,42.5z M47.8,43.5c-0.5,0-1-0.5-1-1.1c0-0.6,0.4-1,1-1.1c0.5,0,1,0.5,1,1.1
			C48.7,43.1,48.3,43.5,47.8,43.5z"/>
	</g>
	<g>
		<path class="st12" d="M44.7,42.5c0-1.5-1.1-2.5-2.5-2.5c-1.4,0-2.5,1.1-2.5,2.5c0,1.5,1.1,2.7,2.5,2.7
			C43.6,45.2,44.7,43.9,44.7,42.5z M42.2,43.5c-0.5,0-1-0.5-1-1.1c0-0.6,0.4-1,1-1.1c0.5,0,1,0.5,1,1.1
			C43.2,43.1,42.8,43.5,42.2,43.5z"/>
	</g>
	<g>
		<path class="st12" d="M39.2,42.5c0-1.5-1.1-2.5-2.5-2.5c-1.4,0-2.5,1.1-2.5,2.5c0,1.5,1.1,2.7,2.5,2.7
			C38,45.2,39.2,43.9,39.2,42.5z M36.6,43.5c-0.5,0-1-0.5-1-1.1c0-0.6,0.4-1,1-1.1c0.5,0,1,0.5,1,1.1C37.6,43.1,37.2,43.5,36.6,43.5
			z"/>
	</g>
	<g>
		<path class="st11" d="M57.5,42"/>
	</g>
	<g>
		<rect x="27.5" y="28.4" class="st13" width="34.5" height="16.9"/>
	</g>
	<g>
		<path class="st12" d="M31.1,42.5c0-1.5-1.1-2.5-2.5-2.5c-1.4,0-2.5,1.1-2.5,2.5c0,1.5,1.1,2.7,2.5,2.7
			C29.9,45.2,31.1,43.9,31.1,42.5z M28.5,43.5c-0.5,0-1-0.5-1-1.1c0-0.6,0.4-1,1-1.1c0.5,0,1,0.5,1,1.1
			C29.5,43.1,29.1,43.5,28.5,43.5z"/>
	</g>
	<g>
		<path class="st12" d="M25.3,42.5c0-1.5-1.1-2.5-2.5-2.5c-1.4,0-2.5,1.1-2.5,2.5c0,1.5,1.1,2.7,2.5,2.7
			C24.2,45.2,25.3,43.9,25.3,42.5z M22.8,43.5c-0.5,0-1-0.5-1-1.1c0-0.6,0.4-1,1-1.1c0.5,0,1,0.5,1,1.1
			C23.8,43.1,23.3,43.5,22.8,43.5z"/>
	</g>
	<g>
		<path class="st12" d="M19.8,42.5c0-1.5-1.1-2.5-2.5-2.5c-1.4,0-2.5,1.1-2.5,2.5c0,1.5,1.1,2.7,2.5,2.7
			C18.7,45.2,19.8,43.9,19.8,42.5z M17.3,43.5c-0.5,0-1-0.5-1-1.1c0-0.6,0.4-1,1-1.1c0.5,0,1,0.5,1,1.1
			C18.3,43.1,17.9,43.5,17.3,43.5z"/>
	</g>
	<g>
		<path class="st12" d="M14.3,42.5c0-1.5-1.1-2.5-2.5-2.5c-1.4,0-2.5,1.1-2.5,2.5c0,1.5,1.1,2.7,2.5,2.7
			C13.1,45.2,14.3,43.9,14.3,42.5z M11.7,43.5c-0.5,0-1-0.5-1-1.1c0-0.6,0.4-1,1-1.1c0.5,0,1,0.5,1,1.1
			C12.7,43.1,12.3,43.5,11.7,43.5z"/>
	</g>
	<g>
		<rect x="7" y="39.6" class="st12" width="51.8" height="0.3"/>
	</g>
</g>
</svg>
